<svg xmlns="http://www.w3.org/2000/svg" xmlns:xlink="http://www.w3.org/1999/xlink" viewBox="0 0 326.07 286.57"><defs><style>.cls-1{fill-rule:evenodd;fill:url(#linear-gradient);}.cls-2{fill:#fdfdfe;}</style><linearGradient id="linear-gradient" x1="274.77" y1="31.55" x2="51.3" y2="255.02" gradientUnits="userSpaceOnUse"><stop offset="0" stop-color="#73c8d7"/><stop offset="0.25" stop-color="#4870b6"/><stop offset="0.5" stop-color="#5e2383"/><stop offset="0.75" stop-color="#a53c8f"/><stop offset="1" stop-color="#e4200d"/></linearGradient></defs><g id="Layer_2" data-name="Layer 2"><g id="Layer_1-2" data-name="Layer 1"><path class="cls-1" d="M324,135.48,250.27,7.81A15.63,15.63,0,0,0,236.74,0H89.33A15.63,15.63,0,0,0,75.8,7.81L2.09,135.48a15.6,15.6,0,0,0,0,15.61L75.8,278.76a15.63,15.63,0,0,0,13.53,7.81H236.74a15.63,15.63,0,0,0,13.53-7.81L324,151.09A15.6,15.6,0,0,0,324,135.48Z"/><path class="cls-2" d="M67.46,68.55a14.15,14.15,0,0,0,2,2.62,14.37,14.37,0,0,0,6,3.91l.17,0c.15,0,.27-.2.34-.32s.63-1.15.63-1.15c.15-.29.31-.57.47-.85.32-.57.63-1.11.87-1.65a.79.79,0,0,0,0-.61.37.37,0,0,0-.29-.2,9.5,9.5,0,0,1-4.88-3A10.06,10.06,0,0,1,70.5,63.1a10.63,10.63,0,0,1,.07-5.1,14.49,14.49,0,0,1,1.73-3.84c.17-.3.35-.6.52-.91l.29-.52c1.86-3.38,9.5-17.24,13-23.41a1.79,1.79,0,0,1,1.56-.91,2,2,0,0,1,.53.08,1.78,1.78,0,0,1,1.24,1.87,16.37,16.37,0,0,0,0,3.13,15.73,15.73,0,0,0,3.92,8.9l.13.15c.07.07.16.17.25.25.44.4.88.79,1.33,1.15a13.93,13.93,0,0,0,2.3,1.53,1.77,1.77,0,0,1,.86,1.07A1.79,1.79,0,0,1,98,47.9c-2.23,4-4.48,8.08-5.42,9.75a.75.75,0,0,0,0,.93,19.77,19.77,0,0,1,2.13,5.11,2.5,2.5,0,0,1,.07.26L103.64,48a1.78,1.78,0,0,1,1.56-.92H135a16.62,16.62,0,0,0,3.6-.29,14.24,14.24,0,0,0,6.92-3.77,15.08,15.08,0,0,0,4.09-6.9,15.86,15.86,0,0,0,.25-7.43c-.07-.34-.22-.4-.49-.4h-2.82c-.49,0-.86,0-1.18.05a.55.55,0,0,0-.43.2.6.6,0,0,0,0,.47,10.13,10.13,0,0,1,0,5.8,9.58,9.58,0,0,1-6.74,6.68,10.9,10.9,0,0,1-3.13.38h-1l-1,0h0l-16.23,0h-6.77a1.78,1.78,0,0,1-1.57-2.61,15.73,15.73,0,0,0,1.32-11.49,14.08,14.08,0,0,0-1.3-3.27,1.79,1.79,0,0,1,1.56-2.63h5.88c4.52,0,9.1,0,11,0,.3,0,.43,0,.63-.43A19.67,19.67,0,0,1,130.74,17l.35-.36H103.91a27.1,27.1,0,0,0-3.63.45,1.68,1.68,0,0,1-.45.06,1.74,1.74,0,0,1-.45-.06,13.81,13.81,0,0,0-3.52-.45A15.76,15.76,0,0,0,92.4,17l-.13,0a2.22,2.22,0,0,0-.36.1c-.54.2-1.08.4-1.62.62a14.19,14.19,0,0,0-7.05,6.4c-.53.95-3,5.34-5.72,10.35-3.86,7-8.39,15.17-9.4,17l-.07.12a21.39,21.39,0,0,0-2,4.17,18.71,18.71,0,0,0-.49,2,16.17,16.17,0,0,0,1.89,10.72ZM95.05,27.81a9.46,9.46,0,0,1,3.89-4.54,1.77,1.77,0,0,1,1.86,0,10.22,10.22,0,0,1,4.06,11.94,13.46,13.46,0,0,1-1.15,2.38l-.3.55-1.17,2.12a1.77,1.77,0,0,1-1.56.92,1.86,1.86,0,0,1-.72-.15,9.5,9.5,0,0,1-4.31-4A9.92,9.92,0,0,1,95.05,27.81Z"/><path class="cls-2" d="M131.52,34.16a9.1,9.1,0,0,0,.16.91.84.84,0,0,0,.24.37h1.51c.87,0,1.74,0,2.61,0a.69.69,0,0,0,.53-.2.57.57,0,0,0,.05-.46,9.57,9.57,0,0,1-.19-4.88h0v0a.24.24,0,0,1,0-.08,6.11,6.11,0,0,1,.17-.74,9.79,9.79,0,0,1,1.66-3.36,1.83,1.83,0,0,1,.13-.16,8.94,8.94,0,0,1,2.48-2.23l.05,0a9,9,0,0,1,4.66-1.38h23.54c.16,0,.29-.06.47-.42A19.57,19.57,0,0,1,172.77,17l.28-.29c-6,0-14.51-.05-20-.05h-7.6a14.4,14.4,0,0,0-3.24.47,15.15,15.15,0,0,0-1.9.66l-.34.15a15.64,15.64,0,0,0-4.47,3.24c-.06,0-.21.22-.22.23l-.47.55-.24.3-.22.29-.3.42-.18.28a17.57,17.57,0,0,0-1.08,2c-.09.18-.17.37-.25.55s-.15.37-.23.57-.15.39-.22.61-.16.52-.17.54-.09.3-.13.47-.07.29-.11.44a.43.43,0,0,1,0,.11l-.12.56s-.13.91-.13.91-.06.61-.06.61a16.2,16.2,0,0,0,.06,3.1C131.48,33.85,131.49,34,131.52,34.16Z"/><path class="cls-2" d="M83.06,74.92c-1,1.91-6.1,11.11-9.48,17.2-1.27,2.31-2.24,4-2.52,4.57,0,.06-.06.14.08.41l.28.52c.21.37.41.74.58,1.11a25.64,25.64,0,0,1,1.43,3.86c1.26-2.26,3.18-5.73,5.18-9.35l7.55-13.61.51-.9.4-.74.06-.13a16.41,16.41,0,0,0,1.36-3.61c.06-.24.11-.47.15-.71s.06-.36.09-.54,0-.35.07-.51A15.67,15.67,0,0,0,87,63a15.27,15.27,0,0,0-2.67-3.58l-.43-.4-.21-.18a.46.46,0,0,0-.07-.07c-.22-.19-.45-.37-.64-.52l-.12-.09a15.57,15.57,0,0,0-2-1.22l-.62-.31-.41-.18c-.32-.13-.65-.25-1-.36a.68.68,0,0,0-.17,0c-.15,0-.28.2-.34.32l-.63,1.17-.45.79c-.33.58-.64,1.14-.89,1.7a.79.79,0,0,0-.05.61.42.42,0,0,0,.29.2,9.49,9.49,0,0,1,4.81,2.91l.08.09a4.74,4.74,0,0,1,.4.49l.21.29A10.68,10.68,0,0,1,84,70.52h0v.1a9.11,9.11,0,0,1-.82,4C83.18,74.68,83.13,74.78,83.06,74.92Z"/><path class="cls-2" d="M248.08,61l-.59.2-.26.09-.09,0-.73.31-.15.08a14.49,14.49,0,0,0-2,1.14l-.57.41-.36.28c-.27.22-.54.46-.79.7s-.33.31-.06.78l.65,1.15c.15.26.29.53.43.79a17.28,17.28,0,0,0,1,1.66c.14.21.29.3.37.3a.4.4,0,0,0,.26-.17,9.47,9.47,0,0,1,4.76-2.87l.17,0a4.84,4.84,0,0,1,.64-.13l.34,0c.34,0,.69,0,1,0A10,10,0,0,1,257.05,67l.07,0a8.74,8.74,0,0,1,2.93,2.76l.2.32c1.09,1.85,6.18,11.06,9.55,17.15,1.27,2.31,2.24,4,2.5,4.52l.07.09a.53.53,0,0,0,.22,0h.74c.36,0,.71,0,1.06,0a22.68,22.68,0,0,1,4,.66c-1.65-3-4.57-8.26-7.27-13.16,0,0-4.52-8.19-5.54-10l-.49-.92-.42-.72-.07-.13a15.71,15.71,0,0,0-2.32-3c-.16-.17-.33-.33-.51-.49a4.73,4.73,0,0,0-.4-.34l-.38-.31A14.17,14.17,0,0,0,248.08,61Z"/><path class="cls-2" d="M182.52,40.55a8.66,8.66,0,0,1-3.81,1.27l-.35,0c-1.2,0-5.15,0-12.42,0H154.27a.77.77,0,0,0-.17.22l-.29.51c-.2.37-.41.74-.63,1.09a26.54,26.54,0,0,1-2.65,3.39h27.54a14.53,14.53,0,0,0,3.64-.57l.65-.22c.17-.05.32-.12.49-.18l.44-.19a14.72,14.72,0,0,0,6.93-6.36,15.85,15.85,0,0,0,1.64-4.23c0-.12,0-.24.09-.44l0-.14c0-.1,0-.2.05-.29s0-.08,0-.12c0-.29.08-.58.11-.84v-.14a14.64,14.64,0,0,0,0-2.39l-.05-.72-.06-.47q-.07-.54-.18-1.08c-.07-.3-.18-.4-.49-.4h-2.81c-.5,0-.86,0-1.2.05a.6.6,0,0,0-.42.19.63.63,0,0,0,0,.48,10.15,10.15,0,0,1,0,5.65l0,.17c-.06.2-.14.41-.21.61l-.13.33a10.34,10.34,0,0,1-4,4.7h0Z"/><path class="cls-2" d="M259.92,109.57c-.21-.35-.4-.71-.6-1.07l-.49-.89c-1.89-3.37-7.65-13.77-9.94-18l-.74-1.34c-.14-.2-.25-.24-.54-.24H247a18.63,18.63,0,0,1-4.72-.64l-.24-.06c3,5.46,7.33,13.33,10.09,18.32l2.61,4.74.86,1.54a3.07,3.07,0,0,0,.2.36,15.69,15.69,0,0,0,2,2.64l.07.08a18.82,18.82,0,0,0,1.5,1.38l.31.24a15.38,15.38,0,0,0,4.92,2.42l.29.08c.22,0,.44.1.69.14l.37.07.35,0,.44.06.36,0c.32,0,.64,0,1,0s.8,0,1.2,0l.57,0,.58-.08c.19,0,.39-.06.61-.11l.55-.11.42-.11.42-.13.12,0,.5-.17.84-.34.5-.24a15.49,15.49,0,0,0,2.52-1.59l.35-.28c.23-.19.46-.39.67-.59a.63.63,0,0,0,.16-.54c-.82-1.52-1.46-2.66-2.09-3.71-.16-.28-.35-.41-.45-.41a.46.46,0,0,0-.25.14,9,9,0,0,1-4,2.67h0l-.72.22a9,9,0,0,1-2.26.29,8.39,8.39,0,0,1-1.44-.12l-.14,0a8.65,8.65,0,0,1-3.15-1.14l-.06,0a9.62,9.62,0,0,1-3.45-3.49Z"/><path class="cls-2" d="M175,35.42h2.8c.34,0,.78,0,1.2-.05a.6.6,0,0,0,.43-.19.61.61,0,0,0,0-.47,10.16,10.16,0,0,1,0-5.81,9.88,9.88,0,0,1,2.41-4.15,9.76,9.76,0,0,1,4.33-2.53,11,11,0,0,1,3.13-.38l1,0h1.59l16,0c7,0,11.22,0,12.72,0A1.78,1.78,0,0,1,221.75,25a15.58,15.58,0,0,0-4.9,7.57l0,.12a2.83,2.83,0,0,0-.11.4c-.1.59-.21,1.18-.29,1.78a15.74,15.74,0,0,0,.09,4.85,1.79,1.79,0,0,1-1.75,2.09H208.7l-11.24,0c-.31,0-.43,0-.63.42a19.28,19.28,0,0,1-3.18,4.49l-.34.35h25.27s1.24.35,1.55.91L224,55.07c3.85,6.93,8.32,15,9.3,16.8l.07.12a21.16,21.16,0,0,0,2.46,3.87,16.44,16.44,0,0,0,1.44,1.45,14.34,14.34,0,0,0,9.42,3.62H247a12.43,12.43,0,0,0,3.12-.44A14.21,14.21,0,0,0,256.38,77c.12-.11.33-.31.06-.77-.14-.24-.64-1.15-.64-1.15l-.47-.85c-.31-.58-.61-1.12-.93-1.6-.15-.21-.3-.31-.38-.31a.4.4,0,0,0-.26.17,9.48,9.48,0,0,1-4.93,2.91,10.12,10.12,0,0,1-2.23.26,8.92,8.92,0,0,1-2.49-.36,9.85,9.85,0,0,1-4.27-2.65,14,14,0,0,1-2.33-3.49c-.16-.31-.32-.61-.5-.92l-.29-.53c-1.58-2.84-7.08-12.74-10.86-19.58a1.84,1.84,0,0,1-.14-1.4,1.8,1.8,0,0,1,.91-1.06,15.66,15.66,0,0,0,4.24-3.12,14.75,14.75,0,0,0,2.73-4.07,15.42,15.42,0,0,0,1.47-6.77,1.77,1.77,0,0,1,1.78-1.8,1.77,1.77,0,0,1,1.39.66,15.23,15.23,0,0,1,1.37,2.19l.3.54c1.71,3.05,8.88,16,10.78,19.48.21.38.34.4.6.4H252a18.87,18.87,0,0,1,4.72.64l.31.09-13.6-24.56a14.47,14.47,0,0,0-9-7.18,11.23,11.23,0,0,0-2.32-.42,1.78,1.78,0,0,1-1.18-.58c-.07-.07-.14-.16-.23-.24-.44-.39-.87-.78-1.33-1.15a13.49,13.49,0,0,0-8.8-3.16h-31.2a16.56,16.56,0,0,0-3.6.29,18.27,18.27,0,0,0-1.9.57,14.38,14.38,0,0,0-5,3.2,15,15,0,0,0-4.08,6.9,15.86,15.86,0,0,0-.25,7.43C174.58,35.36,174.72,35.42,175,35.42Zm52.39-7.84a1.88,1.88,0,0,1,.62-.11,1.83,1.83,0,0,1,.76.17,1.79,1.79,0,0,1,.92,1,9.79,9.79,0,0,1-.35,7.26A9.4,9.4,0,0,1,224,41.19a1.94,1.94,0,0,1-.63.11,1.83,1.83,0,0,1-.76-.17,1.78,1.78,0,0,1-.92-1,9.86,9.86,0,0,1,.64-7.83A9.24,9.24,0,0,1,227.39,27.58Z"/><path class="cls-2" d="M194.56,252.41c-.05-.3-.1-.61-.16-.91a.82.82,0,0,0-.25-.37h-1.52c-.87,0-1.73,0-2.6,0a.7.7,0,0,0-.53.2.62.62,0,0,0-.05.46,9.64,9.64,0,0,1,.2,4.89.09.09,0,0,0,0,.05c0,.25-.11.5-.18.74a9.77,9.77,0,0,1-1.67,3.37l-.09.12a9.17,9.17,0,0,1-2.51,2.26l-.05,0a9,9,0,0,1-4.65,1.38H156.94c-.16,0-.29.07-.46.42a19.63,19.63,0,0,1-3.18,4.48l-.28.3c6,0,14.67,0,20.16,0h7.39a14.32,14.32,0,0,0,3.24-.47,15.57,15.57,0,0,0,1.89-.66l.35-.15a15.67,15.67,0,0,0,4.48-3.25c.06-.05.2-.21.21-.22l.48-.56.23-.29.22-.29.31-.43c.05-.09.11-.17.17-.27a16,16,0,0,0,1.08-2c.09-.18.17-.37.25-.55s.15-.37.23-.56.15-.4.22-.62.17-.52.17-.54.09-.3.13-.46.08-.3.11-.45a.53.53,0,0,1,0-.12l.11-.56s.14-.93.14-.93l.06-.58a17.08,17.08,0,0,0-.07-3.1C194.6,252.73,194.58,252.57,194.56,252.41Z"/><path class="cls-2" d="M242.86,212a2,2,0,0,1,.16-.33c1-1.9,6.07-11.07,9.43-17.13,1.3-2.34,2.28-4.11,2.56-4.64,0-.06.06-.14-.08-.41s-.18-.34-.28-.51c-.2-.37-.41-.75-.58-1.12a26.78,26.78,0,0,1-1.43-3.86l-7.18,13-5.55,10-.51.9c-.14.25-.27.49-.39.74l-.07.13a16.41,16.41,0,0,0-1.36,3.61c-.06.24-.11.48-.15.71l-.09.54c0,.18-.05.35-.07.51a15.74,15.74,0,0,0,1.83,9.5,15.48,15.48,0,0,0,2.67,3.58l.26.24.19.18.2.17.07.07.63.51.13.09a14.76,14.76,0,0,0,1.94,1.22l.64.32.39.17c.32.13.65.25,1,.36l.17,0c.15,0,.28-.2.34-.32l.64-1.17.44-.79a17.3,17.3,0,0,0,.89-1.69.81.81,0,0,0,.05-.62s-.07-.14-.29-.2a9.47,9.47,0,0,1-4.77-2.86.74.74,0,0,0-.12-.13,6.25,6.25,0,0,1-.4-.5l-.21-.29a10.65,10.65,0,0,1-1.9-5.9V216A9.09,9.09,0,0,1,242.86,212Z"/><path class="cls-2" d="M258.61,218a14.15,14.15,0,0,0-1.95-2.62,14.41,14.41,0,0,0-6-3.91l-.17,0c-.15,0-.27.2-.34.32l-.63,1.16-.46.83a17.8,17.8,0,0,0-.87,1.66.78.78,0,0,0-.06.62.42.42,0,0,0,.3.2,9.45,9.45,0,0,1,4.88,3,10.09,10.09,0,0,1,2.24,4.24,10.63,10.63,0,0,1-.07,5.1,14.7,14.7,0,0,1-1.73,3.85c-.17.29-.35.59-.51.9l-.3.53c-2.31,4.19-9.64,17.49-13,23.4a1.78,1.78,0,0,1-1.55.91,1.89,1.89,0,0,1-.53-.08,1.78,1.78,0,0,1-1.25-1.87,15.6,15.6,0,0,0,0-3.13,15.87,15.87,0,0,0-4-9l-.1-.11-.24-.24c-.44-.39-.88-.78-1.33-1.15a14.14,14.14,0,0,0-2.3-1.53,1.84,1.84,0,0,1-.86-1.07,1.79,1.79,0,0,1,.15-1.36c2.23-4,4.48-8.08,5.42-9.75a.75.75,0,0,0,0-.93,19.77,19.77,0,0,1-2.13-5.11,2.5,2.5,0,0,1-.07-.26l-8.81,15.92c-.31.57-1.56.92-1.56.92H191a16.57,16.57,0,0,0-3.59.29,14.33,14.33,0,0,0-6.92,3.77,15,15,0,0,0-4.08,6.9,15.74,15.74,0,0,0-.26,7.43c.07.3.18.4.49.4h2.82c.49,0,.86,0,1.19-.05a.54.54,0,0,0,.42-.2.6.6,0,0,0,0-.47,10.16,10.16,0,0,1,0-5.81,9.59,9.59,0,0,1,6.74-6.67,10.67,10.67,0,0,1,3.13-.38h1l1,0h0l16.1,0H216a1.79,1.79,0,0,1,1.57,2.62,15.7,15.7,0,0,0-1.32,11.48,14.08,14.08,0,0,0,1.3,3.27,1.78,1.78,0,0,1-1.56,2.63h-5.88c-4.52,0-9.1,0-11,0-.3,0-.43,0-.63.43a19.67,19.67,0,0,1-3.17,4.48l-.34.36h27.15a27.09,27.09,0,0,0,3.65-.45,1.68,1.68,0,0,1,.45-.06,1.74,1.74,0,0,1,.45.06,13.81,13.81,0,0,0,3.52.45h0a16.37,16.37,0,0,0,3.46-.38l.13,0a2.22,2.22,0,0,0,.36-.1c.54-.19,1.08-.39,1.62-.62a14.15,14.15,0,0,0,7.05-6.4c.54-1,3-5.39,5.77-10.43,3.85-7,8.35-15.09,9.36-16.88l.06-.13a21.39,21.39,0,0,0,2-4.17,18.71,18.71,0,0,0,.49-2A16.17,16.17,0,0,0,258.61,218ZM231,258.76a9.5,9.5,0,0,1-3.88,4.54,1.79,1.79,0,0,1-.91.25,1.73,1.73,0,0,1-1-.28,10.2,10.2,0,0,1-4.06-11.94,13.81,13.81,0,0,1,1.15-2.38l.3-.55,1.17-2.12a1.79,1.79,0,0,1,1.56-.92,1.82,1.82,0,0,1,.72.15,9.56,9.56,0,0,1,4.31,4A9.89,9.89,0,0,1,231,258.76Z"/><path class="cls-2" d="M281.52,182.88c-.07-.22-.14-.45-.23-.71,0-.11-.08-.23-.13-.35s-.12-.31-.13-.35l-.2-.49-.14-.3a18.4,18.4,0,0,0-1.11-2l-.33-.48c-.11-.16-.22-.32-.35-.49l-.4-.5c-.1-.13-.21-.25-.32-.38l0-.05-.32-.34-.31-.32-.08-.08-.41-.38-.69-.58-.46-.34a14.88,14.88,0,0,0-2.57-1.48l-.42-.18q-.4-.17-.81-.3H272a.35.35,0,0,0-.26.08c-.84,1.48-1.47,2.64-2,3.74a.94.94,0,0,0-.11.72.45.45,0,0,0,.27.22,8.94,8.94,0,0,1,4.24,2.3l0,0,.54.53a9.79,9.79,0,0,1,1.95,3.18l.06.16a9.38,9.38,0,0,1,.62,3.35v.06a9.82,9.82,0,0,1-1.16,4.8h0c-.18.36-.38.72-.58,1.08l-.5.89c-1.72,3.14-7.45,13.5-9.94,17.95l-.74,1.35a.69.69,0,0,0,.1.76,20.21,20.21,0,0,1,2.13,5.1,1.21,1.21,0,0,0,.05.18c3-5.39,7.29-13.09,10-18l2.67-4.82.86-1.53.2-.38a16.39,16.39,0,0,0,1.22-3.09l0-.1a19.83,19.83,0,0,0,.4-2.07l.05-.39a17.39,17.39,0,0,0-.46-5.72C281.58,183.11,281.52,182.9,281.52,182.88Z"/><path class="cls-2" d="M301.74,134.7,296.38,125c-3.94-7.11-8.74-15.77-9.76-17.64l-.07-.12a22.1,22.1,0,0,0-2.47-3.87,14.42,14.42,0,0,0-6.6-4.38,14,14,0,0,0-4.28-.69,13.12,13.12,0,0,0-3.4.45,14.1,14.1,0,0,0-6.23,3.45c-.11.11-.33.31-.06.77l.65,1.16.45.82a16.12,16.12,0,0,0,.95,1.62c.14.21.29.31.38.31a.51.51,0,0,0,.26-.17,9.48,9.48,0,0,1,4.92-2.91,10.25,10.25,0,0,1,2.24-.25,9.23,9.23,0,0,1,6.75,3,13.87,13.87,0,0,1,2.34,3.51c.16.3.32.6.49.9,1.06,1.9,7.66,13.78,11.71,21.13a1.78,1.78,0,0,1-1.56,2.64,1.68,1.68,0,0,1-.5-.07,13.75,13.75,0,0,0-3.94-.57,16.24,16.24,0,0,0-3.4.37l-.2.06a1.57,1.57,0,0,0-.32.09c-.54.2-1.08.4-1.62.62a13.94,13.94,0,0,0-4.63,3.15,1.8,1.8,0,0,1-1.27.53H277a1.79,1.79,0,0,1-1.32-.9c-2.53-4.57-5.33-9.64-6.39-11.58-.2-.38-.34-.4-.6-.4H268a18.63,18.63,0,0,1-4.72-.64l-.32-.09,5.41,9.76,1,1.71h-49l-14.05-25.62-.1-.17a6.61,6.61,0,0,0-3.92-3.07l-.15,0a6.54,6.54,0,0,0-7.84,5.09L176.3,187.27,160.92,67.66l0-.17a6.86,6.86,0,0,0-4.83-5.68,6.54,6.54,0,0,0-8,5.06l-21.59,89.54-8.87-16.15-.09-.16a6.46,6.46,0,0,0-5.57-3.31l-59.71-.13h2.3l.95-1.63c3.91-7.08,8.62-15.59,9.66-17.43l.07-.13a21.92,21.92,0,0,0,2-4.17,15.89,15.89,0,0,0,.34-8.23,15.1,15.1,0,0,0-3.69-7.14,14.35,14.35,0,0,0-6-3.91l-.16,0c-.15,0-.28.2-.34.31l-.64,1.17-.46.83A16.63,16.63,0,0,0,55.39,98a.78.78,0,0,0-.06.62.42.42,0,0,0,.3.2,9.39,9.39,0,0,1,4.87,3,10,10,0,0,1,2.18,9.34A14.33,14.33,0,0,1,60.94,115l-.5.88c-.9,1.65-5.89,10.69-9.87,17.86a1.77,1.77,0,0,1-1.37.91H49a1.79,1.79,0,0,1-1.35-.62,14.63,14.63,0,0,0-7.12-4.5,12.23,12.23,0,0,0-3.47-.47c-.4,0-.81,0-1.22.05a15,15,0,0,0-1.79.24,1.39,1.39,0,0,1-.35,0,1.77,1.77,0,0,1-1.43-.73,1.79,1.79,0,0,1-.13-1.91c2.93-5.3,7.12-12.87,8.47-15.27a.75.75,0,0,0,0-.93,20.15,20.15,0,0,1-2.13-5.1c0-.09-.05-.18-.07-.27L24.93,129.54a15.26,15.26,0,0,0-1.87,9.59,1.85,1.85,0,0,1-.07.74l-.07.22c0,.1-.06.23-.09.36-.11.59-.21,1.18-.29,1.78a15.19,15.19,0,0,0,1.8,9.64c.5.92,2.76,5,5.39,9.75,3.88,7,8.7,15.7,9.73,17.57l.06.12A21.74,21.74,0,0,0,42,183.18a14.52,14.52,0,0,0,6.6,4.39,14.27,14.27,0,0,0,4.28.68,13.26,13.26,0,0,0,3.41-.45,14.26,14.26,0,0,0,6.22-3.45c.12-.11.33-.31.06-.77l-.65-1.15-.45-.83a16.12,16.12,0,0,0-1-1.62c-.14-.21-.29-.31-.37-.31a.49.49,0,0,0-.27.17A9.48,9.48,0,0,1,55,182.75a10.28,10.28,0,0,1-2.24.26A9.24,9.24,0,0,1,46,180a14.14,14.14,0,0,1-2.34-3.51c-.16-.3-.32-.6-.49-.9-1.06-1.9-7.66-13.78-11.71-21.13a1.79,1.79,0,0,1,.17-2,1.77,1.77,0,0,1,1.39-.66,1.79,1.79,0,0,1,.51.07,13.64,13.64,0,0,0,3.93.57,16.17,16.17,0,0,0,3.4-.37L41,152a2.44,2.44,0,0,0,.33-.1c.55-.19,1.09-.4,1.62-.62a13.94,13.94,0,0,0,4.63-3.15,1.81,1.81,0,0,1,1.28-.53h.23a1.79,1.79,0,0,1,1.32.9c2.53,4.57,5.33,9.64,6.39,11.58.2.37.33.4.62.4h.66a18.63,18.63,0,0,1,4.72.64l.32.09c-1.17-2.11-5.2-9.14-7.32-13-1.74-.08-1.21,2.63-2.32,1.51h55.28l14.06,25.61.09.16a6.3,6.3,0,0,0,8.89,2.34l.17-.11a7.05,7.05,0,0,0,2.86-4.2L152.75,99.3l15.39,119.61,0,.16a6.66,6.66,0,0,0,7.38,5.85l.15,0a6.75,6.75,0,0,0,5.3-5.18l21.59-89.55,8.87,16.15.09.16a6.48,6.48,0,0,0,5.57,3.32h54.46l-1.05,1.87S262,167.13,260.93,169l-.06.13a21.39,21.39,0,0,0-2,4.17,16,16,0,0,0-.34,8.23,15.24,15.24,0,0,0,3.69,7.14,14.35,14.35,0,0,0,6,3.91l.17,0c.15,0,.27-.2.34-.32l.63-1.16.46-.83a14.77,14.77,0,0,0,.87-1.66.78.78,0,0,0,.06-.62.42.42,0,0,0-.29-.2,9.41,9.41,0,0,1-4.88-3,10,10,0,0,1-2.18-9.34,14.33,14.33,0,0,1,1.74-3.86l.5-.88c.9-1.64,5.89-10.69,9.87-17.86a1.77,1.77,0,0,1,1.37-.91h.19a1.79,1.79,0,0,1,1.34.62,14.63,14.63,0,0,0,7.12,4.5,11.89,11.89,0,0,0,3.47.47c.41,0,.81,0,1.22-.05a14.7,14.7,0,0,0,1.79-.24,1.39,1.39,0,0,1,.35,0,1.78,1.78,0,0,1,1.56,2.64c-2.92,5.28-7.11,12.85-8.47,15.27a.75.75,0,0,0,0,.93,20.15,20.15,0,0,1,2.13,5.1,2.68,2.68,0,0,1,.07.27c3.18-5.75,11.88-21.48,13.49-24.37a15.3,15.3,0,0,0,1.87-9.6,1.8,1.8,0,0,1,.08-.76l0-.09,0-.1a2.51,2.51,0,0,0,.09-.37c.11-.59.21-1.18.29-1.78A15.18,15.18,0,0,0,301.74,134.7ZM45.87,142.13l-.18.32a9.16,9.16,0,0,1-7.92,4.77h-.38a9.16,9.16,0,0,1-7.77-4.17,10.79,10.79,0,0,1-1.18-2.22,1.8,1.8,0,0,1,.09-1.49,9.27,9.27,0,0,1,7.41-5,10.28,10.28,0,0,1,1.1-.06,9.2,9.2,0,0,1,7.27,3.59,14,14,0,0,1,1.43,2.26l.15.27A1.79,1.79,0,0,1,45.87,142.13Zm251.67,5.09a9.27,9.27,0,0,1-7.41,5,10.28,10.28,0,0,1-1.1.06,9.2,9.2,0,0,1-7.27-3.59,13.6,13.6,0,0,1-1.43-2.27l-.14-.26a1.75,1.75,0,0,1,0-1.73l.18-.33a9.16,9.16,0,0,1,7.92-4.77h.38a9.17,9.17,0,0,1,7.77,4.17,10.54,10.54,0,0,1,1.18,2.22A1.77,1.77,0,0,1,297.54,147.22Z"/><path class="cls-2" d="M151.07,251.15h-2.81a11.72,11.72,0,0,0-1.19,0,.62.62,0,0,0-.43.19.57.57,0,0,0,0,.47,10.16,10.16,0,0,1-.05,5.81,9.57,9.57,0,0,1-6.74,6.68,11,11,0,0,1-3.14.38l-1,0h-1.59l-16,0c-6.94,0-11.22,0-12.72,0a1.78,1.78,0,0,1-1.11-3.15,15.53,15.53,0,0,0,4.9-7.56l0-.14c0-.11.07-.25.1-.39.1-.59.21-1.18.29-1.78a15.74,15.74,0,0,0-.09-4.85,1.79,1.79,0,0,1,1.75-2.09H117l11.58,0c.31,0,.43,0,.63-.42a19.49,19.49,0,0,1,3.18-4.49l.34-.35H107.5a1.79,1.79,0,0,1-1.56-.92l-3.79-6.83c-3.87-7-8.42-15.21-9.42-17l-.07-.13a21.07,21.07,0,0,0-2.46-3.86,16.44,16.44,0,0,0-1.44-1.45,14.05,14.05,0,0,0-5.16-2.93,13.9,13.9,0,0,0-4.26-.69H79a13,13,0,0,0-3.12.44,14.21,14.21,0,0,0-6.22,3.45c-.12.11-.33.31-.06.77l.64,1.15.47.85a16.9,16.9,0,0,0,.94,1.6c.14.21.29.31.37.31a.4.4,0,0,0,.26-.17,9.55,9.55,0,0,1,4.93-2.91,10.12,10.12,0,0,1,2.23-.26,8.87,8.87,0,0,1,2.49.36,9.8,9.8,0,0,1,4.27,2.65,14.18,14.18,0,0,1,2.33,3.49l.5.92.29.53c1.58,2.84,7.08,12.74,10.86,19.59a1.73,1.73,0,0,1,.14,1.39,1.8,1.8,0,0,1-.91,1.06A15.81,15.81,0,0,0,95.2,244a14.52,14.52,0,0,0-2.72,4.07A15.29,15.29,0,0,0,91,254.83a1.77,1.77,0,0,1-1.18,1.7,1.81,1.81,0,0,1-.6.11,1.79,1.79,0,0,1-1.39-.67,14.86,14.86,0,0,1-1.38-2.2l-.29-.53c-1.7-3-8.86-16-10.78-19.48-.2-.37-.33-.4-.62-.4h-.67a18.87,18.87,0,0,1-4.72-.64l-.31-.09,13.6,24.56a14.44,14.44,0,0,0,9,7.18,11.23,11.23,0,0,0,2.32.42,1.8,1.8,0,0,1,1.18.58c.07.07.14.16.23.24.44.39.87.78,1.33,1.15a13.49,13.49,0,0,0,8.8,3.16h31.2a16.56,16.56,0,0,0,3.6-.29,15,15,0,0,0,1.91-.57,14.43,14.43,0,0,0,5-3.2,15.37,15.37,0,0,0,2.87-3.82,14.73,14.73,0,0,0,1.21-3.08,15.86,15.86,0,0,0,.25-7.43C151.49,251.21,151.35,251.15,151.07,251.15ZM98.68,259a1.88,1.88,0,0,1-.62.11,1.83,1.83,0,0,1-.76-.17,1.79,1.79,0,0,1-.92-1,9.79,9.79,0,0,1,.35-7.26,9.35,9.35,0,0,1,5.38-5.25,1.72,1.72,0,0,1,.63-.12,1.83,1.83,0,0,1,.76.17,1.78,1.78,0,0,1,.92,1,9.86,9.86,0,0,1-.64,7.83A9.24,9.24,0,0,1,98.68,259Z"/><path class="cls-2" d="M73.85,226.16a13.74,13.74,0,0,0,4.2-.63l.39-.12.17-.06.23-.09.09,0,.74-.32.14-.07a12.67,12.67,0,0,0,2-1.14l.58-.41.35-.28c.28-.22.54-.46.8-.7s.32-.31.06-.77l-.66-1.16-.43-.79a17.28,17.28,0,0,0-1-1.66c-.14-.21-.29-.3-.37-.3a.44.44,0,0,0-.26.17,9.45,9.45,0,0,1-4.78,2.87l-.16,0a6.38,6.38,0,0,1-.63.12l-.34,0a8.94,8.94,0,0,1-1,.06A10.12,10.12,0,0,1,69,219.61h0l-.08,0A9,9,0,0,1,66,216.8c-.06-.1-.13-.2-.19-.31-1.09-1.85-6.18-11.06-9.55-17.15C55,197,54,195.29,53.74,194.77c0,0-.05-.07-.26-.08h-.74c-.35,0-.71,0-1.06,0a23.65,23.65,0,0,1-4-.65l7.18,13,5.63,10.19.49.91.42.72a1.48,1.48,0,0,0,.08.13,15.29,15.29,0,0,0,2.31,3c.16.17.33.33.5.48l.41.35.38.31a14,14,0,0,0,8.69,3.07Z"/><path class="cls-2" d="M143.55,246a8.45,8.45,0,0,1,3.79-1.27l.38,0c1.19,0,5.29-.05,12.53-.05H171.8a.6.6,0,0,0,.17-.21l.29-.51a11.55,11.55,0,0,1,.64-1.09,24.39,24.39,0,0,1,2.64-3.39H149l-.81,0H148a14.53,14.53,0,0,0-3.64.57l-.64.21-.5.19-.44.19a14.72,14.72,0,0,0-6.93,6.36,16.2,16.2,0,0,0-1.64,4.23c0,.12-.05.24-.09.44l0,.16a2.56,2.56,0,0,0-.05.27.52.52,0,0,1,0,.11c0,.29-.08.59-.11.83v.16a15.85,15.85,0,0,0,0,2.39c0,.21,0,.42.06.73,0,.15,0,.3.05.46.05.36.11.72.19,1.08s.17.4.47.4h2.81c.5,0,.87,0,1.21-.05a.58.58,0,0,0,.42-.19.63.63,0,0,0,0-.48,10.09,10.09,0,0,1,0-5.66l.05-.16a5.67,5.67,0,0,1,.21-.62l.12-.32a10.34,10.34,0,0,1,4-4.7h0Z"/><path class="cls-2" d="M66.15,177c.21.35.41.71.6,1.07l.49.88c1.89,3.37,7.65,13.77,9.94,17.95l.74,1.34c.14.2.25.24.54.24h.65a18.75,18.75,0,0,1,4.72.64l.23.06c-3-5.4-7.25-13.19-10-18.12l-2.72-4.94-.85-1.53-.21-.37a15.72,15.72,0,0,0-1.93-2.62l-.09-.1a14.84,14.84,0,0,0-1.51-1.38l-.3-.24a15.38,15.38,0,0,0-4.92-2.42l-.28-.08c-.22,0-.44-.1-.7-.14l-.37-.07-.35,0-.5-.06-.3,0c-.32,0-.64,0-1,0s-.8,0-1.19,0c-.19,0-.39,0-.58.06l-.58.07c-.2,0-.4.06-.6.11l-.47.1H54.6l-.45.11-.41.13-.11,0-.43.15-.17.06-.72.29-.54.25A15.42,15.42,0,0,0,49.26,170l-.36.28c-.23.19-.45.39-.67.59a.63.63,0,0,0-.16.54c.82,1.51,1.46,2.66,2.09,3.71.16.28.35.41.45.41a.46.46,0,0,0,.25-.14,9,9,0,0,1,4-2.66l0,0c.23-.08.48-.15.72-.21a8.54,8.54,0,0,1,2.26-.29,9.55,9.55,0,0,1,1.44.11l.14,0a9,9,0,0,1,3.16,1.14l.05,0A9.41,9.41,0,0,1,66.13,177Z"/><path class="cls-2" d="M44.55,103.69c.07.22.14.45.23.71l.13.36.14.35.14.36s.14.32.19.42a18.62,18.62,0,0,0,1.1,2c.11.17.22.34.34.5l.35.48c.12.17.25.33.4.51s.21.25.32.37l0,.06.32.34c.1.11.21.21.32.32a.6.6,0,0,0,.08.08l.4.38.69.58.46.35a15.63,15.63,0,0,0,2.58,1.47l.41.18.81.31h.11a.36.36,0,0,0,.26-.07c.57-1,1.32-2.36,2-3.75a.93.93,0,0,0,.11-.72.41.41,0,0,0-.27-.22,8.86,8.86,0,0,1-4.23-2.3l0,0a6.62,6.62,0,0,1-.53-.53,9.65,9.65,0,0,1-2-3.18,1.27,1.27,0,0,1-.06-.16,9.38,9.38,0,0,1-.62-3.35v-.06A9.92,9.92,0,0,1,50,94.57c.19-.35.38-.7.58-1l.49-.89C52.9,89.25,58.66,78.85,61,74.68l.74-1.35a.69.69,0,0,0-.1-.76,20.21,20.21,0,0,1-2.13-5.1c0-.06,0-.12,0-.18-3,5.38-7.29,13.08-10,18-1.37,2.47-2.37,4.28-2.69,4.84l-.85,1.54s-.21.39-.21.4a15.69,15.69,0,0,0-1.21,3.06l0,.1a20.35,20.35,0,0,0-.4,2.07l0,.4a17.07,17.07,0,0,0,.45,5.71C44.49,103.46,44.55,103.67,44.55,103.69Z"/></g></g></svg>